<svg width="380" height="380" viewBox="0 0 380 380" fill="none" xmlns="http://www.w3.org/2000/svg">
<path fill-rule="evenodd" clip-rule="evenodd" d="M190 0C85.0663 0 0 85.0663 0 190C0 294.934 85.0663 380 190 380C294.934 380 380 294.934 380 190C380 85.0663 294.934 0 190 0ZM190 13.1167C287.532 13.1167 366.883 92.466 366.883 190C366.883 287.534 287.532 366.883 190 366.883C92.466 366.883 13.1167 287.534 13.1167 190C13.1167 92.466 92.466 13.1167 190 13.1167Z" fill="#FF5900"/>
<path fill-rule="evenodd" clip-rule="evenodd" d="M194.13 233.925C186.882 233.925 180.41 229.594 179.172 222.766L171.105 159.74C171.105 159.74 171.107 155.557 167.053 155.557C163 155.557 163 159.594 163 159.594L158.105 230.203C157.958 232.299 156.208 233.925 154.096 233.925H148.936C146.606 233.925 144.766 231.96 144.93 229.646L149.998 158.039C150.627 150.62 156.969 142.505 167.095 142.505C178.463 142.505 183.803 152.489 184.094 157.843L191.577 218.523C191.672 219.56 192.503 220.78 194.13 220.78C195.754 220.78 196.587 219.56 196.68 218.523L204.165 157.843C204.454 152.489 209.796 142.505 221.164 142.505C231.29 142.505 237.632 150.62 238.261 158.039L243.329 229.646C243.493 231.96 241.651 233.925 239.323 233.925H234.161C232.051 233.925 230.301 232.299 230.154 230.203L225.259 159.594C225.259 159.594 225.259 155.557 221.206 155.557C217.152 155.557 217.154 159.74 217.154 159.74L209.087 222.766C207.849 229.594 201.377 233.925 194.13 233.925Z" fill="#FF5900"/>
<path fill-rule="evenodd" clip-rule="evenodd" d="M282.901 155.741C277.813 155.741 272.542 156.901 267.244 157.712C264.724 158.101 262.454 156.126 262.454 153.554V148.522C262.454 146.605 263.738 144.916 265.581 144.455C269.433 143.49 273.62 142.432 284.317 142.51C308.822 142.686 314.052 158.353 314.567 164.411C315.073 170.39 314.637 178.944 304.433 187.111L270.739 212.907C269.656 213.737 269.021 215.033 269.027 216.405C269.039 218.809 270.974 220.509 273.358 220.509H310.206C312.688 220.509 314.701 222.781 314.701 225.285V229.393C314.701 231.895 312.688 233.925 310.206 233.925H272.973C263.606 233.925 256.014 226.268 256.014 216.824V216.365C256.014 210.884 258.552 205.718 262.875 202.397L296.504 176.312C297.79 175.314 298.944 174.132 299.779 172.73C300.222 171.981 300.641 171.099 300.923 170.112C302.664 165.072 299.629 158.758 294.747 157.247C294.747 157.247 290.727 155.741 282.901 155.741Z" fill="#FF5900"/>
<path fill-rule="evenodd" clip-rule="evenodd" d="M105.74 155.466C110.828 155.466 118.53 156.78 123.828 157.588C126.348 157.97 128.616 156.011 128.616 153.463V148.471C128.616 146.57 127.334 144.896 125.489 144.439C121.921 143.553 115.333 142.57 105.88 142.494C81.0189 142.494 66.5601 155.276 66.5601 177.241V207.715V207.857C66.5601 222.254 78.2325 233.924 92.6292 233.924L114.6 233.872C124.095 233.872 131.807 226.198 131.853 216.701L131.867 213.482L131.869 188.16C131.869 184.578 128.965 181.676 125.383 181.678H124.598H118.801H114.754C112.511 181.678 110.694 183.497 110.694 185.738V190.68C110.694 192.921 112.511 194.74 114.754 194.74H118.899V213.346C118.899 213.586 118.897 213.917 118.893 214.305C118.859 217.857 115.994 220.735 112.443 220.785C109.628 220.827 95.2073 220.866 95.2073 220.866H92.6793C84.0577 220.767 79.6447 213.75 79.6447 205.127V203.793V174.348C79.6447 163.789 87.5612 155.466 105.74 155.466Z" fill="#FF5900"/>
</svg>
